<?xml version="1.0" encoding="UTF-8"?>
<!--Generator: Apple Native CoreSVG 326-->
<!DOCTYPE svg
PUBLIC "-//W3C//DTD SVG 1.1//EN"
       "http://www.w3.org/Graphics/SVG/1.1/DTD/svg11.dtd">
<svg version="1.1" xmlns="http://www.w3.org/2000/svg" xmlns:xlink="http://www.w3.org/1999/xlink" viewBox="0 0 249.268 151.904">
 <g>
  <rect height="151.904" opacity="0" width="249.268" x="0" y="0"/>
  <path d="M150.586 28.7842L150.586 51.2451L128.491 51.2451C112.939 51.2451 102.588 61.2549 102.588 77.0996L102.588 90.4785L25.5371 90.4785C23.7305 90.4785 22.9004 89.7461 22.9004 87.8418L22.9004 28.7842C22.9004 26.2451 24.4629 24.6826 27.0264 24.6826L146.484 24.6826C149.023 24.6826 150.586 26.2451 150.586 28.7842Z" fill="white" fill-opacity="0.2125"/>
  <path d="M164.453 27.3926L164.453 51.2451L150.586 51.2451L150.586 28.7842C150.586 26.2451 149.023 24.6826 146.484 24.6826L27.0264 24.6826C24.4629 24.6826 22.9004 26.2451 22.9004 28.7842L22.9004 87.8418C22.9004 89.7461 23.7305 90.4785 25.5371 90.4785L102.588 90.4785L102.588 121.582L101.245 121.582C92.8467 121.582 86.0352 128.491 86.0352 136.719C86.0352 139.334 86.7112 141.808 87.9021 143.97L65.2588 143.97C61.8408 143.97 59.082 141.138 59.082 137.842C59.082 134.521 61.8408 131.665 65.2588 131.665L65.5518 131.665L65.5518 120.898L25.6104 120.898C15.2588 120.898 9.00879 114.697 9.00879 104.346L9.00879 27.3926C9.00879 17.0166 15.2588 10.8154 25.6104 10.8154L147.876 10.8154C158.252 10.8154 164.453 17.0166 164.453 27.3926Z" fill="white" fill-opacity="0.85"/>
  <path d="M125.439 130.591L125.439 80.0293C125.439 75.9521 127.417 74.1211 131.372 74.1211L203.833 74.1211C207.788 74.1211 209.766 75.9521 209.766 80.0293L209.766 130.566Z" fill="white" fill-opacity="0.2125"/>
  <path d="M95.0684 136.719C95.0684 140.039 97.8271 142.92 101.245 142.92L234.058 142.871C237.476 142.871 240.234 140.015 240.234 136.694C240.234 133.398 237.476 130.566 234.058 130.566L223.608 130.566L223.608 77.0996C223.608 66.2109 217.554 60.2539 206.689 60.2539L128.491 60.2539C117.92 60.2539 111.572 66.2109 111.572 77.0996L111.572 130.591L101.245 130.591C97.8271 130.591 95.0684 133.447 95.0684 136.719ZM125.439 130.591L125.439 80.0293C125.439 75.9521 127.417 74.1211 131.372 74.1211L203.833 74.1211C207.788 74.1211 209.766 75.9521 209.766 80.0293L209.766 130.566Z" fill="white" fill-opacity="0.85"/>
 </g>
</svg>
