<?xml version="1.0" encoding="UTF-8" standalone="no"?>
<!DOCTYPE svg PUBLIC "-//W3C//DTD SVG 1.1//EN" "http://www.w3.org/Graphics/SVG/1.1/DTD/svg11.dtd">
<!-- Created with Vectornator (http://vectornator.io/) -->
<svg height="1024.0px" stroke-miterlimit="10" style="fill-rule:nonzero;clip-rule:evenodd;stroke-linecap:round;stroke-linejoin:round;" version="1.1" viewBox="0 0 1024 1024" width="1024.0px" xml:space="preserve" xmlns="http://www.w3.org/2000/svg" xmlns:xlink="http://www.w3.org/1999/xlink">
<defs>
<filter color-interpolation-filters="sRGB" filterUnits="userSpaceOnUse" height="836.484" id="Filter" width="836.656" x="101.438" y="108.406">
<feDropShadow dx="7.76603" dy="14.6475" flood-color="#000000" flood-opacity="0.333" in="SourceGraphic" result="Shadow" stdDeviation="12.5911"/>
</filter>
<linearGradient gradientTransform="matrix(3.232 897.651 -897.651 3.232 507.039 64.2919)" gradientUnits="userSpaceOnUse" id="LinearGradient" x1="0" x2="1" y1="0" y2="0">
<stop offset="0" stop-color="#575758"/>
<stop offset="1" stop-color="#1e1c1c"/>
</linearGradient>
<filter color-interpolation-filters="sRGB" filterUnits="userSpaceOnUse" height="523.785" id="Filter_2" width="452.683" x="290.058" y="258.406">
<feDropShadow dx="4.3998" dy="8.29848" flood-color="#000000" flood-opacity="0.333" in="SourceGraphic" result="Shadow" stdDeviation="7.58097"/>
</filter>
</defs>
<clipPath id="ArtboardFrame">
<rect height="1024" width="1024" x="0" y="0"/>
</clipPath>
<g clip-path="url(#ArtboardFrame)" id="Layer-1">
<path d="M0 0L1024 0L1024 1024L0 1024L0 0Z" fill="#67a4be" fill-rule="nonzero" opacity="1" stroke="none"/>
<g filter="url(#Filter)">
<path d="M215.843 306.783L216.109 380.679C216.133 387.49 213.77 393.174 209.019 397.731L157.106 450.361C135.616 472.006 124.965 493.045 125.152 513.476C125.339 533.908 136.141 554.756 157.558 576.019L209.849 628.274C214.634 633.024 217.038 638.805 217.063 645.615L217.328 719.171C217.437 749.592 224.726 772.041 239.194 786.519C253.663 800.997 276.221 808.18 306.869 808.07L380.425 807.805C387.235 807.78 393.033 810.143 397.818 814.894L450.448 866.807C471.866 888.297 492.79 898.949 513.222 898.762C533.654 898.575 554.615 887.772 576.105 866.354L628.36 814.064C633.11 809.279 638.777 806.875 645.361 806.851L719.257 806.585C749.451 806.476 771.844 799.188 786.435 784.719C801.026 770.25 808.266 747.692 808.156 717.044L807.891 643.488C807.867 636.677 810.116 630.88 814.639 626.096L866.552 573.466C888.27 552.048 899.035 531.122 898.848 510.691C898.661 490.259 887.745 469.298 866.1 447.809L813.809 395.554C809.252 391.03 806.962 385.362 806.937 378.552L806.671 304.656C806.562 274.234 799.273 251.785 784.804 237.307C770.336 222.83 747.778 215.646 717.13 215.757L643.234 216.023C636.65 216.046 630.966 213.797 626.182 209.273L573.552 157.36C551.907 135.871 530.869 125.163 510.437 125.236C490.005 125.31 469.157 136.169 447.895 157.813L395.64 210.103C390.889 214.661 385.108 216.952 378.297 216.977L304.742 217.241C274.321 217.351 251.871 224.697 237.394 239.278C222.917 253.86 215.733 276.362 215.843 306.783Z" fill="url(#LinearGradient)" fill-rule="nonzero" opacity="1" stroke="none"/>
</g>
<g filter="url(#Filter_2)">
<path d="M640.46 465.228L640.303 464.381C640.762 468.712 642.567 452.339 649.271 441.771C661.698 422.141 705.683 418.332 707.367 461.4C708.162 481.492 707.979 480.57 707.979 494.087C707.979 509.969 707.612 519.522 706.754 531.012C705.806 543.3 703.173 571.069 699.346 584.525C696.715 593.772 687.991 614.57 679.39 627.041C679.39 627.041 677.601 629.13 674.814 632.554C665.648 643.806 645.681 669.474 642.935 682.735C639.323 700 640.547 700.122 639.812 712.38C639.108 724.606 643.517 740.704 643.517 740.704C643.517 740.704 641.431 740.975 638.148 741.308C630.169 742.114 615.113 743.281 605.745 741.779C593.776 739.843 578.963 715.943 575.136 708.663C569.872 698.556 558.638 700.491 554.261 707.926C547.405 719.692 532.56 740.796 522.091 742.117C501.644 744.697 459.221 743.069 426.01 742.731C426.01 742.731 431.673 711.673 419.062 701.014C409.726 693.058 393.656 676.929 384.045 668.452L358.579 640.158C349.886 629.13 327.908 611.619 320.532 579.21C314.012 550.426 314.655 536.325 321.664 524.807C328.766 513.102 342.142 506.743 347.804 505.606C354.171 504.347 368.955 504.439 374.587 507.541C381.413 511.29 384.168 512.396 389.493 519.522C396.534 528.953 398.737 533.622 396.044 523.24C393.044 511.75 390.075 497.22 383.617 475.563C378.505 458.452 373.148 449.174 369.23 437.686C364.486 423.708 359.956 415.537 354.048 401.405C349.794 391.299 342.907 369.211 340.06 357.169C336.418 341.564 341.07 328.815 347.529 320.122C355.273 309.708 376.974 305.1 389.065 309.339C400.421 313.332 411.838 325.098 417.103 333.546C425.918 347.677 428.061 352.961 439.05 380.916C451.079 411.389 459.325 453.17 459.631 462.417L459.741 462.721C459.71 461.493 459.037 428.869 459.006 427.641C457.935 396.03 457.17 371.669 457.843 337.355C457.904 333.485 459.802 319.323 460.414 315.391C462.802 300.031 469.749 290.815 481.014 285.316C493.625 279.142 509.357 278.711 523.897 284.794C536.845 290.108 543.058 301.69 544.926 316.189C545.354 319.538 547.803 346.51 547.773 350.196C547.405 381.684 547.955 400.607 548.231 416.98C548.353 424.107 547.955 466.839 548.751 462.107C550.741 453.782 550.924 424.354 557.444 413.448C561.73 406.259 572.657 399.777 578.472 398.733C587.472 397.135 598.522 396.644 607.979 398.487C615.601 399.992 625.916 409.085 628.702 413.448C635.405 424.015 639.171 453.906 640.303 464.381L640.46 465.228Z" fill="#67a4be" fill-rule="nonzero" opacity="1" stroke="#000000" stroke-linecap="butt" stroke-linejoin="round" stroke-width="22.7839"/>
<g opacity="1">
<path d="M594.054 542.243L594.054 489.832" fill="none" opacity="1" stroke="#000000" stroke-linecap="round" stroke-linejoin="miter" stroke-width="22.4533"/>
<path d="M508.468 493.738L509.092 545.679" fill="none" opacity="1" stroke="#000000" stroke-linecap="round" stroke-linejoin="miter" stroke-width="22.2484"/>
<path d="M507.628 618.591C531.743 644.914 562.167 645.754 592.765 615.624" fill="none" opacity="1" stroke="#000000" stroke-linecap="round" stroke-linejoin="miter" stroke-width="22.2484"/>
<path d="M552.324 571.981L551.954 548.12" fill="none" opacity="1" stroke="#000000" stroke-linecap="round" stroke-linejoin="miter" stroke-width="22.2484"/>
</g>
</g>
<path d="M789.436 1024L898.85 1024L898.85 1079.73L789.436 1079.73L789.436 1024Z" fill="#67a4be" fill-rule="nonzero" opacity="1" stroke="none"/>
</g>
</svg>
