<?xml version="1.0" encoding="UTF-8"?>
<!--Generator: Apple Native CoreSVG 326-->
<!DOCTYPE svg
PUBLIC "-//W3C//DTD SVG 1.1//EN"
       "http://www.w3.org/Graphics/SVG/1.1/DTD/svg11.dtd">
<svg version="1.1" xmlns="http://www.w3.org/2000/svg" xmlns:xlink="http://www.w3.org/1999/xlink" viewBox="0 0 131.665 131.738">
 <g>
  <rect height="131.738" opacity="0" width="131.665" x="0" y="0"/>
  <path d="M65.8203 131.665C102.173 131.665 131.665 102.173 131.665 65.8447C131.665 29.4922 102.173 0 65.8203 0C29.4678 0 0 29.4922 0 65.8447C0 102.173 29.4678 131.665 65.8203 131.665ZM65.8203 116.895C37.5977 116.895 14.7705 94.0674 14.7705 65.8447C14.7705 37.6221 37.5977 14.7705 65.8203 14.7705C94.043 14.7705 116.87 37.6221 116.87 65.8447C116.87 94.0674 94.043 116.895 65.8203 116.895Z" fill="white" fill-opacity="0.85"/>
  <path d="M41.2842 96.5332C44.7754 96.5332 47.6562 93.6768 47.6562 90.1611C47.6562 86.6699 44.7754 83.7891 41.2842 83.7891C37.7686 83.7891 34.9121 86.6699 34.9121 90.1611C34.9121 93.6768 37.7686 96.5332 41.2842 96.5332ZM30.9326 72.1924C34.4238 72.1924 37.2803 69.3359 37.2803 65.8447C37.2803 62.3291 34.4238 59.4482 30.9326 59.4482C27.4414 59.4482 24.585 62.3291 24.585 65.8447C24.585 69.3359 27.4414 72.1924 30.9326 72.1924ZM41.2842 47.8516C44.7754 47.8516 47.6562 44.9951 47.6562 41.4795C47.6562 38.0127 44.7754 35.1318 41.2842 35.1318C37.7686 35.1318 34.9121 38.0127 34.9121 41.4795C34.9121 44.9951 37.7686 47.8516 41.2842 47.8516ZM65.7715 37.085C69.2871 37.085 72.168 34.2285 72.168 30.7129C72.168 27.2217 69.2871 24.3408 65.7715 24.3408C62.3047 24.3408 59.4238 27.2217 59.4238 30.7129C59.4238 34.2285 62.3047 37.085 65.7715 37.085ZM90.3076 47.8516C93.7988 47.8516 96.6553 44.9951 96.6553 41.4795C96.6553 38.0127 93.7988 35.1318 90.3076 35.1318C86.792 35.1318 83.9355 38.0127 83.9355 41.4795C83.9355 44.9951 86.792 47.8516 90.3076 47.8516ZM100.586 72.1924C104.077 72.1924 106.934 69.3359 106.934 65.8447C106.934 62.3291 104.077 59.4482 100.586 59.4482C97.0703 59.4482 94.1895 62.3291 94.1895 65.8447C94.1895 69.3359 97.0703 72.1924 100.586 72.1924ZM56.2256 55.9082C51.9287 60.1807 51.9287 66.6992 56.2256 71.0449C56.9336 71.7285 58.5205 72.876 60.2295 73.999L87.5244 92.5537C89.4287 93.7744 91.2842 93.5547 92.627 92.2607C93.8965 90.9424 94.1406 89.0869 92.8955 87.207L74.3408 59.8633C73.2422 58.1787 72.0947 56.5674 71.3867 55.9082C67.0898 51.5625 60.5469 51.5625 56.2256 55.9082Z" fill="white" fill-opacity="0.85"/>
 </g>
</svg>
