<?xml version="1.0" encoding="UTF-8"?>
<!--Generator: Apple Native CoreSVG 326-->
<!DOCTYPE svg
PUBLIC "-//W3C//DTD SVG 1.1//EN"
       "http://www.w3.org/Graphics/SVG/1.1/DTD/svg11.dtd">
<svg version="1.1" xmlns="http://www.w3.org/2000/svg" xmlns:xlink="http://www.w3.org/1999/xlink" viewBox="0 0 136.938 122.9">
 <g>
  <rect height="122.9" opacity="0" width="136.938" x="0" y="0"/>
  <path d="M0 30.127C0 78.1006 28.9551 109.692 73.2178 109.692C104.395 109.692 126.538 89.3799 126.538 60.8398C126.538 33.374 104.224 13.4521 73.4375 13.4521C62.9639 13.4521 52.5879 16.3574 41.2842 16.3574C31.665 16.3574 23.9258 13.4033 17.5293 6.10352C12.6953 0.512695 3.95508 1.19629 1.97754 9.42383C0.390625 15.6738 0 26.6602 0 30.127ZM12.915 30.127C12.915 27.124 12.9883 23.9258 13.3545 21.582C13.4521 20.3369 14.1357 20.2148 14.9658 20.8008C22.0215 26.2939 32.0557 29.2725 41.2842 29.2725C48.1689 29.2725 54.4922 28.3936 60.0586 27.6367C65.0146 26.9043 69.3359 26.3672 73.4375 26.3672C97.0703 26.3672 113.623 40.6494 113.623 60.8398C113.623 82.1289 97.2168 96.7773 73.2178 96.7773C36.2305 96.7773 12.915 70.9717 12.915 30.127ZM37.0605 46.1182C40.6494 57.0557 52.3926 63.0859 68.7744 66.9434C91.3574 72.1436 99.6826 76.4893 107.739 86.5723C114.575 94.9463 116.187 105.127 120.166 117.7C121.24 121.191 123.828 122.9 126.904 122.9C132.471 122.9 136.938 117.798 136.938 111.694C136.938 103.369 128.516 89.624 120.093 77.9297C111.426 66.2842 96.5088 60.0342 72.6807 56.3232C58.5938 54.0527 48.877 50.9521 42.5781 43.1152C39.9658 40.0146 35.7666 42.1631 37.0605 46.1182Z" fill="white" fill-opacity="0.85"/>
 </g>
</svg>
