<?xml version="1.0" encoding="UTF-8"?>
<!--Generator: Apple Native CoreSVG 326-->
<!DOCTYPE svg
PUBLIC "-//W3C//DTD SVG 1.1//EN"
       "http://www.w3.org/Graphics/SVG/1.1/DTD/svg11.dtd">
<svg version="1.1" xmlns="http://www.w3.org/2000/svg" xmlns:xlink="http://www.w3.org/1999/xlink" viewBox="0 0 90.6494 130.762">
 <g>
  <rect height="130.762" opacity="0" width="90.6494" x="0" y="0"/>
  <path d="M14.8682 127.466L75.7812 127.466C85.5225 127.466 90.6494 122.241 90.6494 111.694L90.6494 65.21C90.6494 54.7363 85.5225 49.5117 75.7812 49.5117L14.8682 49.5117C5.10254 49.5117 0 54.7363 0 65.21L0 111.694C0 122.241 5.10254 127.466 14.8682 127.466ZM18.4082 114.551C15.7471 114.551 14.1846 112.915 14.1846 109.888L14.1846 67.041C14.1846 64.0137 15.7471 62.4268 18.4082 62.4268L72.29 62.4268C74.9756 62.4268 76.4404 64.0137 76.4404 67.041L76.4404 109.888C76.4404 112.915 74.9756 114.551 72.29 114.551ZM12.1826 55.0537L25.6104 55.0537L25.6104 34.375C25.6104 20.8496 34.3018 12.915 45.3125 12.915C56.2744 12.915 65.1123 20.8496 65.1123 34.375L65.1123 55.0537L78.5156 55.0537L78.5156 35.1074C78.5156 12.7686 63.501 0 45.3125 0C27.124 0 12.1826 12.7686 12.1826 35.1074Z" fill="white" fill-opacity="0.85"/>
 </g>
</svg>
