<?xml version="1.0" encoding="UTF-8" standalone="no"?>
<!DOCTYPE svg PUBLIC "-//W3C//DTD SVG 1.1//EN" "http://www.w3.org/Graphics/SVG/1.1/DTD/svg11.dtd">
<!-- Created with Vectornator (http://vectornator.io/) -->
<svg height="32.0pt" stroke-miterlimit="10" style="fill-rule:nonzero;clip-rule:evenodd;stroke-linecap:round;stroke-linejoin:round;" version="1.1" viewBox="0 0 32 32" width="32.0pt" xml:space="preserve" xmlns="http://www.w3.org/2000/svg" xmlns:xlink="http://www.w3.org/1999/xlink">
<defs/>
<g id="Untitled">
<g opacity="1">
<path d="M24.4299 12.9307L24.4196 12.8751C24.4497 13.1593 24.5682 12.0849 25.0081 11.3914C25.8236 10.1032 28.71 9.85325 28.8205 12.6795C28.8727 13.998 28.8607 13.9375 28.8607 14.8245C28.8607 15.8667 28.8366 16.4936 28.7803 17.2476C28.7181 18.054 28.5453 19.8763 28.2942 20.7593C28.1215 21.3661 27.549 22.7309 26.9846 23.5493C26.9846 23.5493 26.8672 23.6864 26.6843 23.9111C26.0828 24.6495 24.7725 26.3339 24.5923 27.2041C24.3553 28.3371 24.4356 28.3451 24.3874 29.1495C24.3412 29.9518 24.6305 31.0082 24.6305 31.0082C24.6305 31.0082 24.4936 31.026 24.2782 31.0478C23.7546 31.1007 22.7666 31.1773 22.1518 31.0787C21.3664 30.9517 20.3943 29.3833 20.1432 28.9056C19.7977 28.2423 19.0605 28.3693 18.7733 28.8572C18.3234 29.6293 17.3492 31.0142 16.6622 31.1009C15.3204 31.2702 12.5365 31.1634 10.3571 31.1412C10.3571 31.1412 10.7287 29.1031 9.90114 28.4036C9.2885 27.8815 8.23397 26.8231 7.60326 26.2668L5.93207 24.4101C5.36162 23.6864 3.91941 22.5373 3.43533 20.4105C3.00749 18.5216 3.04967 17.5963 3.50965 16.8404C3.97566 16.0723 4.85343 15.655 5.22503 15.5804C5.64282 15.4978 6.613 15.5038 6.98259 15.7074C7.43051 15.9534 7.61129 16.026 7.96079 16.4936C8.42278 17.1125 8.5674 17.4189 8.39064 16.7376C8.19379 15.9836 7.99896 15.0301 7.57513 13.6089C7.23969 12.486 6.88818 11.8772 6.63107 11.1233C6.31974 10.206 6.02246 9.6698 5.63479 8.74248C5.35559 8.07925 4.90365 6.62982 4.71684 5.83958C4.47781 4.8155 4.78313 3.9789 5.20695 3.4084C5.71514 2.72501 7.13926 2.42262 7.93267 2.70082C8.67788 2.96288 9.4271 3.73498 9.77258 4.28935C10.3511 5.21667 10.4917 5.5634 11.2128 7.39788C12.0022 9.39765 12.5433 12.1394 12.5634 12.7462L12.5706 12.7662C12.5686 12.6856 12.5244 10.5447 12.5224 10.4641C12.4521 8.3897 12.4019 6.79109 12.4461 4.53932C12.4501 4.28532 12.5746 3.35599 12.6148 3.09795C12.7715 2.09 13.2274 1.48523 13.9666 1.12438C14.7942 0.719181 15.8266 0.690959 16.7807 1.09011C17.6304 1.43886 18.0381 2.19886 18.1607 3.15036C18.1888 3.3701 18.3495 5.14006 18.3475 5.38197C18.3234 7.44827 18.3595 8.69007 18.3776 9.76455C18.3856 10.2322 18.3595 13.0364 18.4117 12.7259C18.5423 12.1796 18.5543 10.2484 18.9822 9.53272C19.2634 9.061 19.9805 8.63564 20.3621 8.5671C20.9527 8.46227 21.6778 8.43002 22.2984 8.55097C22.7986 8.64975 23.4755 9.24646 23.6583 9.53272C24.0982 10.2262 24.3453 12.1877 24.4196 12.8751L24.4299 12.9307Z" fill="#67a4be" fill-rule="nonzero" opacity="1" stroke="#000000" stroke-linecap="butt" stroke-linejoin="round" stroke-width="1.49514"/>
</g>
<g opacity="1">
<g opacity="1">
<path d="M21.3846 17.9846L21.3846 14.5453" fill="none" opacity="1" stroke="#000000" stroke-linecap="round" stroke-linejoin="miter" stroke-width="1.47345"/>
</g>
<g opacity="1">
<g opacity="1">
<path d="M15.7682 14.8016L15.8092 18.2101" fill="none" opacity="1" stroke="#000000" stroke-linecap="round" stroke-linejoin="miter" stroke-width="1.46"/>
</g>
</g>
<g opacity="1">
<path d="M15.7131 22.9948C17.2956 24.7222 19.2921 24.7773 21.3 22.8001" fill="none" opacity="1" stroke="#000000" stroke-linecap="round" stroke-linejoin="miter" stroke-width="1.46"/>
</g>
<g opacity="1">
<g opacity="1">
<path d="M18.6462 19.9361L18.6219 18.3703" fill="none" opacity="1" stroke="#000000" stroke-linecap="round" stroke-linejoin="miter" stroke-width="1.46"/>
</g>
</g>
</g>
</g>
</svg>
