<?xml version="1.0" encoding="UTF-8"?>
<!--Generator: Apple Native CoreSVG 326-->
<!DOCTYPE svg
PUBLIC "-//W3C//DTD SVG 1.1//EN"
       "http://www.w3.org/Graphics/SVG/1.1/DTD/svg11.dtd">
<svg version="1.1" xmlns="http://www.w3.org/2000/svg" xmlns:xlink="http://www.w3.org/1999/xlink" viewBox="0 0 137.855 154.982">
 <g>
  <rect height="154.982" opacity="0" width="137.855" x="0" y="0"/>
  <path d="M8.53931 146.436C19.8186 157.716 33.051 157.838 44.2083 146.754C51.7278 139.234 59.3694 122.242 65.2532 114.722L78.2659 127.784C83.759 133.35 90.717 133.399 96.137 127.955L104.462 119.556C109.882 114.063 109.809 107.325 104.267 101.783L53.2415 50.7088C47.6262 45.0692 40.8635 45.0448 35.3704 50.5379L27.0452 58.8387C21.5764 64.3075 21.6008 71.0946 27.1917 76.7098L40.1555 89.6981C32.7336 95.5819 15.7415 103.272 8.27075 110.743C-2.83765 121.9-2.7644 135.133 8.53931 146.436ZM38.3 66.8953L43.1096 62.159C44.2571 61.0116 45.5754 60.9627 46.7229 62.1346L92.7922 108.204C93.9397 109.327 93.9153 110.645 92.7678 111.842L88.0559 116.602C86.8596 117.823 85.4924 117.847 84.3206 116.627L69.0129 101.246C66.2053 98.4627 62.47 98.658 59.2717 101.71C54.218 106.69 45.6975 127.32 35.7366 137.232C30.219 142.823 23.5784 142.725 17.8411 137.11C12.2258 131.397 12.1526 124.659 17.6946 119.19C27.6555 109.303 48.2854 100.733 53.2659 95.6795C56.2932 92.4813 56.5374 88.7215 53.7297 85.9627L38.3 70.5575C37.1038 69.3856 37.1038 68.0672 38.3 66.8953ZM26.6057 135.523C30.5364 135.523 33.6858 132.349 33.6858 128.419C33.6858 124.537 30.5364 121.339 26.6057 121.339C22.7239 121.339 19.5256 124.537 19.5256 128.419C19.5256 132.349 22.7239 135.523 26.6057 135.523ZM101.337 110.426L132.245 79.5418C139.838 71.9735 139.692 62.745 131.928 54.9569L82.4407 5.39632C74.7258-2.31853 62.2258 0.952958 59.6379 12.3299C53.4124 39.3075 53.3635 40.8944 43.4026 54.8104L52.6555 63.9901C64.887 48.3651 65.5217 41.2117 71.4543 19.3123C72.1135 16.7977 74.1887 16.1629 75.8489 17.7742L122.211 64.1121C124.579 66.5047 124.555 69.0194 122.382 71.241L92.2795 101.368ZM91.303 72.6571C94.5989 75.953 113.031 65.7479 119.379 57.7889L105.512 43.9461C104.34 55.1278 98.5295 63.16 91.4495 70.2401C90.6682 71.0701 90.7415 72.0955 91.303 72.6571Z" fill="white" fill-opacity="0.85"/>
 </g>
</svg>
