<?xml version="1.0" encoding="UTF-8"?>
<!--Generator: Apple Native CoreSVG 326-->
<!DOCTYPE svg
PUBLIC "-//W3C//DTD SVG 1.1//EN"
       "http://www.w3.org/Graphics/SVG/1.1/DTD/svg11.dtd">
<svg version="1.1" xmlns="http://www.w3.org/2000/svg" xmlns:xlink="http://www.w3.org/1999/xlink" viewBox="0 0 120.215 155.811">
 <g>
  <rect height="155.811" opacity="0" width="120.215" x="0" y="0"/>
  <path d="M55.4688 31.25C56.4209 31.25 57.0068 30.5908 57.1533 29.7119C58.8135 19.7021 58.6914 19.3115 69.6045 17.2852C70.5322 17.1387 71.1182 16.5527 71.1182 15.625C71.1182 14.6973 70.5078 14.0625 69.5801 13.9404C58.6914 12.1826 58.7891 11.7432 57.1533 1.53809C57.0068 0.634766 56.4209 0 55.4688 0C54.5166 0 53.9307 0.634766 53.7842 1.5625C52.1973 11.5234 52.2705 11.9385 41.333 13.9404C40.4053 14.1113 39.8193 14.6973 39.8193 15.625C39.8193 16.5527 40.4053 17.1387 41.4062 17.2852C52.2217 19.165 52.1484 19.5801 53.7842 29.6875C53.9307 30.5908 54.5166 31.25 55.4688 31.25Z" fill="white" fill-opacity="0.85"/>
  <path d="M24.7803 75.9521C26.123 75.9521 27.1729 74.9756 27.3438 73.6328C29.5654 57.0801 29.9072 57.0068 47.2656 53.8086C48.584 53.5645 49.5361 52.6123 49.5361 51.2451C49.5361 49.8535 48.5352 48.8281 47.2412 48.6572C30.0049 46.2158 29.541 45.8008 27.3438 28.9062C27.1729 27.4902 26.1475 26.5381 24.7803 26.5381C23.3887 26.5381 22.3633 27.4902 22.1924 28.9551C20.1416 45.459 19.5557 45.459 2.27051 48.6572C0.976562 48.9014 0 49.8535 0 51.2451C0 52.6611 0.976562 53.5645 2.56348 53.8086C19.5557 56.4941 20.1416 56.9336 22.1924 73.5107C22.3633 74.9756 23.3887 75.9521 24.7803 75.9521Z" fill="white" fill-opacity="0.85"/>
  <path d="M69.3848 146.094C71.6309 146.094 73.3887 144.507 73.7305 142.163C78.2471 108.13 82.8613 103.345 116.138 99.6826C118.53 99.4141 120.215 97.6074 120.215 95.3125C120.215 93.042 118.555 91.2598 116.162 90.9424C82.9102 86.9629 78.5889 82.4707 73.7305 48.4375C73.3398 46.1426 71.6064 44.5068 69.3848 44.5068C67.1387 44.5068 65.4053 46.1426 65.0391 48.4375C60.5225 82.4707 55.9082 87.2803 22.6318 90.9424C20.2393 91.1865 18.5547 93.0176 18.5547 95.3125C18.5547 97.583 20.2148 99.3652 22.6074 99.6826C55.7861 104.15 60.0098 108.154 65.0391 142.163C65.4297 144.507 67.1631 146.094 69.3848 146.094Z" fill="white" fill-opacity="0.85"/>
 </g>
</svg>
