<?xml version="1.0" encoding="UTF-8" standalone="no"?>
<!DOCTYPE svg PUBLIC "-//W3C//DTD SVG 1.1//EN" "http://www.w3.org/Graphics/SVG/1.1/DTD/svg11.dtd">
<!-- Created with Vectornator (http://vectornator.io/) -->
<svg height="32.0pt" stroke-miterlimit="10" style="fill-rule:nonzero;clip-rule:evenodd;stroke-linecap:round;stroke-linejoin:round;" version="1.1" viewBox="0 0 32 32" width="32.0pt" xml:space="preserve" xmlns="http://www.w3.org/2000/svg" xmlns:xlink="http://www.w3.org/1999/xlink">
<defs/>
<g id="Untitled">
<g opacity="1">
<path d="M23.6699 13.2075L23.6605 13.1568C23.6879 13.4154 23.7958 12.4378 24.196 11.8069C24.938 10.6348 27.5642 10.4074 27.6647 12.9789C27.7122 14.1784 27.7012 14.1234 27.7012 14.9305C27.7012 15.8787 27.6793 16.4491 27.6281 17.1351C27.5715 17.8688 27.4143 19.5269 27.1859 20.3302C27.0287 20.8823 26.5078 22.124 25.9943 22.8687C25.9943 22.8687 25.8875 22.9935 25.721 23.1978C25.1738 23.8697 23.9816 25.4023 23.8177 26.194C23.602 27.2248 23.6751 27.2322 23.6313 27.964C23.5892 28.694 23.8524 29.6551 23.8524 29.6551C23.8524 29.6551 23.7279 29.6713 23.5319 29.6911C23.0554 29.7394 22.1566 29.809 21.5972 29.7193C20.8826 29.6038 19.9981 28.1768 19.7697 27.7421C19.4553 27.1386 18.7846 27.2542 18.5233 27.6981C18.1139 28.4005 17.2275 29.6606 16.6025 29.7395C15.3817 29.8936 12.8487 29.7963 10.8658 29.7762C10.8658 29.7762 11.2039 27.9218 10.451 27.2854C9.89357 26.8103 8.93411 25.8474 8.36026 25.3412L6.83973 23.6519C6.32071 22.9934 5.00853 21.948 4.56809 20.0129C4.17882 18.2943 4.2172 17.4524 4.63571 16.7646C5.0597 16.0658 5.85834 15.6861 6.19644 15.6183C6.57657 15.5431 7.45927 15.5486 7.79554 15.7338C8.20309 15.9576 8.36757 16.0236 8.68556 16.4491C9.1059 17.0122 9.23748 17.291 9.07666 16.6711C8.89756 15.9851 8.72028 15.1175 8.33467 13.8244C8.02947 12.8028 7.70965 12.2489 7.47572 11.5629C7.19245 10.7284 6.92197 10.2405 6.56926 9.39678C6.31523 8.79334 5.90403 7.47458 5.73407 6.75558C5.51659 5.82383 5.79437 5.06265 6.17999 4.54358C6.64236 3.9218 7.93809 3.64668 8.65997 3.89979C9.338 4.13823 10.0197 4.84072 10.334 5.34511C10.8603 6.18883 10.9883 6.5043 11.6444 8.17339C12.3626 9.99288 12.8549 12.4874 12.8732 13.0395L12.8798 13.0578C12.878 12.9844 12.8378 11.0365 12.8359 10.9632C12.772 9.0758 12.7263 7.62131 12.7665 5.57255C12.7701 5.34144 12.8834 4.4959 12.92 4.26112C13.0625 3.34404 13.4774 2.79379 14.1499 2.46548C14.9029 2.09681 15.8422 2.07113 16.7103 2.4343C17.4834 2.75161 17.8544 3.44309 17.9659 4.30881C17.9914 4.50873 18.1377 6.11913 18.1358 6.33923C18.1139 8.21925 18.1468 9.34909 18.1632 10.3267C18.1705 10.7522 18.1468 13.3035 18.1943 13.0211C18.3131 12.524 18.3241 10.7669 18.7133 10.1158C18.9692 9.68658 19.6216 9.29957 19.9689 9.23721C20.5062 9.14183 21.1659 9.11248 21.7306 9.22253C22.1857 9.31241 22.8016 9.85532 22.9679 10.1158C23.3681 10.7467 23.5929 12.5314 23.6605 13.1568L23.6699 13.2075Z" fill="none" opacity="1" stroke="#ffffff" stroke-linecap="butt" stroke-linejoin="round" stroke-width="2.27461"/>
</g>
<g opacity="1">
<g opacity="1">
<path d="M20.8992 17.8057L20.8992 14.6764" fill="none" opacity="1" stroke="#ffffff" stroke-linecap="round" stroke-linejoin="miter" stroke-width="1.81969"/>
</g>
<g opacity="1">
<g opacity="1">
<path d="M15.7891 14.9096L15.8264 18.0108" fill="none" opacity="1" stroke="#ffffff" stroke-linecap="round" stroke-linejoin="miter" stroke-width="1.81969"/>
</g>
</g>
<g opacity="1">
<path d="M15.739 22.3642C17.1788 23.9358 18.9953 23.986 20.8222 22.187" fill="none" opacity="1" stroke="#ffffff" stroke-linecap="round" stroke-linejoin="miter" stroke-width="1.81969"/>
</g>
<g opacity="1">
<g opacity="1">
<path d="M18.4077 19.5813L18.3855 18.1566" fill="none" opacity="1" stroke="#ffffff" stroke-linecap="round" stroke-linejoin="miter" stroke-width="1.81969"/>
</g>
</g>
</g>
</g>
</svg>
