<?xml version="1.0" encoding="UTF-8"?>
<svg width="28px" height="28px" viewBox="0 0 28 28" version="1.1" xmlns="http://www.w3.org/2000/svg" xmlns:xlink="http://www.w3.org/1999/xlink">
    <title>Logo@1x</title>
    <defs>
        <polygon id="path-1" points="6.42754835 7.75838222 6.42754835 4.98419701 6.42754835 2.63856162 7.00836833 0.81385047 8.39633979 1.41538739e-17 9.48476204 0.246885305 10.6199518 1.99565622 10.6199518 7.24196895 11.2489447 5.9431616 12.5502932 5.49319804 13.9421442 5.9431616 14.6191348 7.75838222 16.3575876 6.69607639 17.775742 7.75838222 17.3391186 14.2370526 14.6191348 18.4925851 14.6191348 21 12.9542659 21 11.3431806 19.1361427 9.48476204 21 5.00788124 21 5.00788124 19.1361427 0.458220517 14.2370526 0.0375249713 11.8714084 0.917350912 10.5 2.99493176 10.5 2.68575163 7.75838222 1.09092936 3.47890646 1.4296072 1.7989024 3.31314551 1.30994754 5.00788124 2.99097636"></polygon>
    </defs>
    <g id="Logo" stroke="none" stroke-width="1" fill="none" fill-rule="evenodd">
        <g id="mascot-copy" transform="translate(5.1121, 3.5)">
            <mask id="mask-2" fill="white">
                <use xlink:href="#path-1"></use>
            </mask>
            <use id="Path-4" stroke="#979797" stroke-width="0.246885305" fill="#D8D8D8" xlink:href="#path-1"></use>
            <g id="Group-2" mask="url(#mask-2)">
                <g transform="translate(0.0375, 0.2469)">
                    <polygon id="Rectangle-Copy-8" fill="#009CDF" points="0 17.4877091 17.775742 17.4877091 17.775742 20.9852509 0 20.9852509"></polygon>
                    <polygon id="Rectangle-Copy-7" fill="#973999" points="0 13.9901673 17.775742 13.9901673 17.775742 17.4877091 0 17.4877091"></polygon>
                    <polygon id="Rectangle-Copy-6" fill="#E23838" points="0 10.4926255 17.775742 10.4926255 17.775742 13.9901673 0 13.9901673"></polygon>
                    <polygon id="Rectangle-Copy-5" fill="#F78200" points="0 6.99508364 17.775742 6.99508364 17.775742 10.4926255 0 10.4926255"></polygon>
                    <polygon id="Rectangle-Copy-4" fill="#FFB900" points="0 3.49754182 17.775742 3.49754182 17.775742 6.99508364 0 6.99508364"></polygon>
                    <polygon id="Rectangle" fill="#5EBD3E" points="0 0 17.775742 0 17.775742 3.49754182 0 3.49754182"></polygon>
                </g>
            </g>
            <g id="Group" mask="url(#mask-2)" stroke="#000000" stroke-linecap="round">
                <g transform="translate(8.3963, 9.4948)" id="Path">
                    <line x1="4.21241403" y1="2.37663931" x2="4.21241403" y2="0" stroke-width="1.26507487"></line>
                    <line x1="0.331346073" y1="0.177109486" x2="0.359678063" y2="2.53246526" stroke-width="1.25578062"></line>
                    <path d="M0.293270643,5.83880844 C1.38681634,7.03248353 2.76644603,7.07055896 4.15395339,5.70426604" stroke-width="1.25578062"></path>
                    <line x1="2.32011354" y1="3.72517291" x2="2.30332165" y2="2.64316732" stroke-width="1.25578062"></line>
                </g>
            </g>
            <path d="M14.7131296,8.37904153 L14.7060121,8.34062059 C14.7268119,8.53700965 14.8086983,7.79457332 15.1126798,7.31534808 C15.67621,6.42517079 17.670782,6.25244931 17.7471402,8.20545627 C17.7832117,9.1165716 17.7749194,9.07476464 17.7749194,9.68770304 C17.7749194,10.4078884 17.7582657,10.8410914 17.719361,11.3621236 C17.6763793,11.9193655 17.5569704,13.1786188 17.3834542,13.7887931 C17.2641143,14.2081065 16.868503,15.1512163 16.478489,15.7167504 C16.478489,15.7167504 16.3973628,15.8114898 16.2709744,15.966763 C15.8553234,16.4770152 14.9498745,17.6409762 14.8253519,18.2423054 C14.6615792,19.0252358 14.7170685,19.030764 14.6837611,19.5866238 C14.6518358,20.1410325 14.8517491,20.8710304 14.8517491,20.8710304 C14.8517491,20.8710304 14.7571479,20.8833306 14.6083013,20.8983949 C14.246481,20.9349501 13.5637492,20.9878825 13.1389075,20.9197476 C12.5961772,20.8319875 11.9244326,19.7481852 11.7509165,19.418083 C11.5121676,18.9597267 11.0027446,19.0474868 10.8042825,19.3846374 C10.4933907,19.9181772 9.82019502,20.8751765 9.34546144,20.9350883 C8.41824526,21.0520787 6.49450316,20.9782773 4.98848516,20.9629366 C4.98848516,20.9629366 5.24526973,19.5545603 4.67340579,19.0711889 C4.25005677,18.7104052 3.52135108,17.9790252 3.08551525,17.5946085 L1.93068262,16.311584 C1.53648791,15.8114898 0.539885986,15.017434 0.205375022,13.5477639 C-0.0902727442,12.2424884 -0.0611253462,11.6030837 0.256731936,11.0807386 C0.578756094,10.549963 1.18531635,10.2615986 1.44210092,10.2100482 C1.73080389,10.1529696 2.40122169,10.1571157 2.6566173,10.2978083 C2.96614083,10.4678002 3.09106417,10.5179685 3.33257711,10.8410914 C3.65182335,11.2687663 3.75175926,11.4804961 3.62961384,11.0097013 C3.49358573,10.4886691 3.3589535,9.82977761 3.06607674,8.8476941 C2.83427961,8.0717431 2.59137771,7.65104761 2.4137085,7.13008451 C2.19857195,6.49620807 1.9931443,6.12568093 1.72525497,5.48488043 C1.53232103,5.02657249 1.22001958,4.02498137 1.09092936,3.47890646 C0.925753864,2.77124246 1.13673735,2.19313167 1.4296072,1.7989024 C1.78077876,1.32666342 2.76488005,1.11770463 3.31314551,1.30994754 C3.82810361,1.49103733 4.34583271,2.02457706 4.58456773,2.40766011 C4.98433901,3.04846062 5.08149701,3.28805941 5.57979451,4.55572937 C6.12528897,5.93761871 6.49920213,7.83223414 6.51309171,8.25154758 L6.51806708,8.26536806 C6.51668504,8.20967152 6.48614177,6.73025795 6.48475972,6.6745614 C6.43618072,5.24110093 6.40149131,4.13642284 6.43203458,2.58039542 C6.43479868,2.40487529 6.52083118,1.76268583 6.54861035,1.58437396 C6.65689383,0.887856179 6.97193174,0.469945512 7.48273678,0.220589452 C8.05462835,-0.0594128367 8.76804167,-0.0789149198 9.4273478,0.196908055 C10.014511,0.437902723 10.2962416,0.963081066 10.3809611,1.62059053 C10.4003789,1.77243618 10.5114265,2.99552126 10.5100444,3.16268691 C10.4933907,4.59055008 10.5183367,5.44866385 10.5308442,6.19115547 C10.5363724,6.5143129 10.5183367,8.45208279 10.5544082,8.23751979 C10.6446559,7.86001331 10.6529482,6.52550749 10.9486374,6.03095534 C11.1429534,5.70498543 11.6384868,5.41105141 11.9021816,5.36368861 C12.3103005,5.29124855 12.8113621,5.26896302 13.2402117,5.35254239 C13.585862,5.42080176 14.0536162,5.83314277 14.1799354,6.03095534 C14.4839169,6.51016676 14.654669,7.8656106 14.7060121,8.34062059 L14.7131296,8.37904153 Z" id="Path" stroke="#000000" stroke-width="1.28006303" stroke-linejoin="round" fill-rule="nonzero"></path>
        </g>
    </g>
</svg>