<?xml version="1.0" encoding="UTF-8"?>
<!--Generator: Apple Native CoreSVG 326-->
<!DOCTYPE svg
PUBLIC "-//W3C//DTD SVG 1.1//EN"
       "http://www.w3.org/Graphics/SVG/1.1/DTD/svg11.dtd">
<svg version="1.1" xmlns="http://www.w3.org/2000/svg" xmlns:xlink="http://www.w3.org/1999/xlink" viewBox="0 0 159.45 115.109">
 <g>
  <rect height="115.109" opacity="0" width="159.45" x="0" y="0"/>
  <path d="M22.7618 115.109L137.556 115.109C151.326 115.109 159.45 107.034 159.45 92.4565L159.45 22.6899C159.45 8.14975 151.314 0.0861317 136.714 0.0861317L21.8938 0.0861317C8.12397 0.0861317 0 8.14975 0 22.6899L0 92.4565C0 107.034 8.1728 115.109 22.7618 115.109ZM23.5737 98.9861C18.8125 98.9861 16.123 96.357 16.123 91.4751L16.123 23.6598C16.123 18.801 18.8125 16.1718 23.5737 16.1718L135.876 16.1718C140.675 16.1718 143.353 18.801 143.353 23.7086L143.353 91.5239C143.353 96.357 140.675 98.9861 135.876 98.9861ZM79.7321 76.2832C84.6828 76.2832 88.718 74.5945 93.1289 70.6L151.098 18.4389L141.293 8.55949L84.5646 59.7271C82.9614 61.1349 81.3956 61.8646 79.7321 61.8646C78.0313 61.8646 76.477 61.1349 74.9112 59.7271L18.1711 8.55949L8.329 18.4389L66.3095 70.6C70.7204 74.5945 74.744 76.2832 79.7321 76.2832ZM19.446 103.793L63.7486 59.4909L53.6827 49.8468L9.60399 93.9025ZM140.015 103.805L149.883 93.9141L105.767 49.8468L95.7386 59.4909Z" fill="#333333" fill-opacity="1.00"/>
 </g>
</svg>
