<?xml version="1.0" encoding="UTF-8"?>
<svg width="136px" height="139px" viewBox="0 0 136 139" version="1.1" xmlns="http://www.w3.org/2000/svg" xmlns:xlink="http://www.w3.org/1999/xlink">
    <title>Activate-Pressed</title>
    <defs>
        <linearGradient x1="50%" y1="0%" x2="50%" y2="100%" id="linearGradient-1">
            <stop stop-color="#F4F4F4" offset="0%"></stop>
            <stop stop-color="#CACACA" offset="100%"></stop>
        </linearGradient>
        <rect id="path-2" x="13.7837838" y="17" width="107.513514" height="106" rx="13"></rect>
        <filter x="-1.9%" y="-1.9%" width="103.7%" height="103.8%" filterUnits="objectBoundingBox" id="filter-3">
            <feGaussianBlur stdDeviation="1.5" in="SourceAlpha" result="shadowBlurInner1"></feGaussianBlur>
            <feOffset dx="0" dy="1" in="shadowBlurInner1" result="shadowOffsetInner1"></feOffset>
            <feComposite in="shadowOffsetInner1" in2="SourceAlpha" operator="arithmetic" k2="-1" k3="1" result="shadowInnerInner1"></feComposite>
            <feColorMatrix values="0 0 0 0 0   0 0 0 0 0   0 0 0 0 0  0 0 0 0.5 0" type="matrix" in="shadowInnerInner1"></feColorMatrix>
        </filter>
        <rect id="path-4" x="0" y="0" width="102" height="101" rx="12"></rect>
        <filter x="-2.0%" y="-2.0%" width="103.9%" height="104.0%" filterUnits="objectBoundingBox" id="filter-5">
            <feGaussianBlur stdDeviation="1.5" in="SourceAlpha" result="shadowBlurInner1"></feGaussianBlur>
            <feOffset dx="0" dy="-0.5" in="shadowBlurInner1" result="shadowOffsetInner1"></feOffset>
            <feComposite in="shadowOffsetInner1" in2="SourceAlpha" operator="arithmetic" k2="-1" k3="1" result="shadowInnerInner1"></feComposite>
            <feColorMatrix values="0 0 0 0 0   0 0 0 0 0   0 0 0 0 0  0 0 0 0.5 0" type="matrix" in="shadowInnerInner1" result="shadowMatrixInner1"></feColorMatrix>
            <feGaussianBlur stdDeviation="1.5" in="SourceAlpha" result="shadowBlurInner2"></feGaussianBlur>
            <feOffset dx="0" dy="-1" in="shadowBlurInner2" result="shadowOffsetInner2"></feOffset>
            <feComposite in="shadowOffsetInner2" in2="SourceAlpha" operator="arithmetic" k2="-1" k3="1" result="shadowInnerInner2"></feComposite>
            <feColorMatrix values="0 0 0 0 0   0 0 0 0 0   0 0 0 0 0  0 0 0 0.5 0" type="matrix" in="shadowInnerInner2" result="shadowMatrixInner2"></feColorMatrix>
            <feMerge>
                <feMergeNode in="shadowMatrixInner1"></feMergeNode>
                <feMergeNode in="shadowMatrixInner2"></feMergeNode>
            </feMerge>
        </filter>
    </defs>
    <g id="Activate-Pressed" stroke="none" stroke-width="1" fill="none" fill-rule="evenodd">
        <g id="Group-2-Copy" transform="translate(0, -0.25)">
            <rect id="Rectangle" fill="url(#linearGradient-1)" x="0" y="0" width="136" height="139" rx="28"></rect>
            <g id="Rectangle-Copy">
                <use fill="#535353" fill-rule="evenodd" xlink:href="#path-2"></use>
                <use fill="black" fill-opacity="1" filter="url(#filter-3)" xlink:href="#path-2"></use>
                <rect stroke="#979797" stroke-width="1" stroke-linejoin="square" x="14.2837838" y="17.5" width="106.513514" height="105" rx="13"></rect>
            </g>
        </g>
        <g id="Rectangle-Copy-2" transform="translate(16.7838, 19.25)">
            <use fill="#FDFDFD" fill-rule="evenodd" xlink:href="#path-4"></use>
            <use fill="black" fill-opacity="1" filter="url(#filter-5)" xlink:href="#path-4"></use>
        </g>
        <text id="activate" font-family="SFProText-Medium, SF Pro Text, -apple-system, BlinkMacSystemFont, system-ui, 'Segoe UI', Roboto, Oxygen, Ubuntu, Cantarell, 'Open Sans', 'Helvetica Neue', sans-serif" font-size="17" font-weight="400" fill="#767676">
            <tspan x="42.6655311" y="108.105992">activate</tspan>
        </text>
        <path d="M99.9974147,29.5167937 L101.721895,31.2325063 C101.875476,31.3817023 102.020287,31.4387314 102.222126,31.4387314 L104.653063,31.4387314 C106.763663,31.4387314 107.764234,32.4435982 107.764234,34.5454446 L107.764234,36.9807848 C107.764234,37.1826245 107.816895,37.3230495 107.966073,37.476631 L109.6818,39.201111 C111.173581,40.6886495 111.182387,42.101581 109.6818,43.5935051 L107.966073,45.3135995 C107.821209,45.467181 107.764234,45.6119915 107.764234,45.8182167 L107.764234,48.24475 C107.764234,50.3553494 106.759349,51.3559205 104.653063,51.3559205 L102.222126,51.3559205 C102.020287,51.3559205 101.879862,51.4085822 101.721895,51.5620738 L99.9974147,53.2734872 C98.5098762,54.7652674 97.0969446,54.7697607 95.6094061,53.2734872 L93.8849261,51.5620738 C93.7313447,51.4085822 93.5909376,51.3559205 93.38908,51.3559205 L90.9537398,51.3559205 C88.8518933,51.3559205 87.8470445,50.3510358 87.8470445,48.24475 L87.8470445,45.8182167 C87.8470445,45.6119915 87.7899974,45.467181 87.6408014,45.3135995 L85.9250942,43.5935051 C84.4331738,42.101581 84.4287847,40.6886495 85.9250942,39.201111 L87.6408014,37.476631 C87.7899974,37.3318205 87.8470445,37.1826245 87.8470445,36.9807848 L87.8470445,34.5454446 C87.8470445,32.4260383 88.8475079,31.4387314 90.9537398,31.4387314 L93.38908,31.4387314 C93.5909376,31.4387314 93.7401336,31.3817023 93.8849261,31.2325063 L95.6050206,29.52557 C97.0969446,28.0204842 98.5054907,28.0160969 99.9974147,29.5167937 Z M101.116358,36.9632249 L96.5308949,44.2385472 L94.4071031,41.6364512 C94.126271,41.2854155 93.836668,41.140605 93.463687,41.140605 C92.8318012,41.140605 92.3227986,41.6496256 92.3227986,42.2814933 C92.3227986,42.5842708 92.4237184,42.8519285 92.6562924,43.1371461 L95.403181,46.4236997 C95.7322713,46.827379 96.1008668,47.033712 96.5616112,47.033712 C97.0091812,47.033712 97.3997221,46.8054517 97.6717833,46.4062657 L103.011925,38.2138221 C103.187524,37.9505318 103.301654,37.6609288 103.301654,37.3976385 C103.301654,36.7613853 102.739918,36.3182007 102.125592,36.3182007 C101.721895,36.3182007 101.388419,36.5332148 101.116358,36.9632249 Z" id="Shape" fill-opacity="0.85" fill="#767676" fill-rule="nonzero"></path>
    </g>
</svg>