<?xml version="1.0" encoding="UTF-8"?>
<svg width="136px" height="139px" viewBox="0 0 136 139" version="1.1" xmlns="http://www.w3.org/2000/svg" xmlns:xlink="http://www.w3.org/1999/xlink">
    <title>Command-Pressed</title>
    <defs>
        <linearGradient x1="50%" y1="0%" x2="50%" y2="100%" id="linearGradient-1">
            <stop stop-color="#F4F4F4" offset="0%"></stop>
            <stop stop-color="#CACACA" offset="100%"></stop>
        </linearGradient>
        <rect id="path-2" x="13.7837838" y="17" width="107.513514" height="106" rx="13"></rect>
        <filter x="-1.9%" y="-1.9%" width="103.7%" height="103.8%" filterUnits="objectBoundingBox" id="filter-3">
            <feGaussianBlur stdDeviation="1.5" in="SourceAlpha" result="shadowBlurInner1"></feGaussianBlur>
            <feOffset dx="0" dy="1" in="shadowBlurInner1" result="shadowOffsetInner1"></feOffset>
            <feComposite in="shadowOffsetInner1" in2="SourceAlpha" operator="arithmetic" k2="-1" k3="1" result="shadowInnerInner1"></feComposite>
            <feColorMatrix values="0 0 0 0 0   0 0 0 0 0   0 0 0 0 0  0 0 0 0.5 0" type="matrix" in="shadowInnerInner1"></feColorMatrix>
        </filter>
        <rect id="path-4" x="0" y="0" width="102" height="101" rx="12"></rect>
        <filter x="-2.0%" y="-2.0%" width="103.9%" height="104.0%" filterUnits="objectBoundingBox" id="filter-5">
            <feGaussianBlur stdDeviation="1.5" in="SourceAlpha" result="shadowBlurInner1"></feGaussianBlur>
            <feOffset dx="0" dy="-0.5" in="shadowBlurInner1" result="shadowOffsetInner1"></feOffset>
            <feComposite in="shadowOffsetInner1" in2="SourceAlpha" operator="arithmetic" k2="-1" k3="1" result="shadowInnerInner1"></feComposite>
            <feColorMatrix values="0 0 0 0 0   0 0 0 0 0   0 0 0 0 0  0 0 0 0.5 0" type="matrix" in="shadowInnerInner1" result="shadowMatrixInner1"></feColorMatrix>
            <feGaussianBlur stdDeviation="1.5" in="SourceAlpha" result="shadowBlurInner2"></feGaussianBlur>
            <feOffset dx="0" dy="-1" in="shadowBlurInner2" result="shadowOffsetInner2"></feOffset>
            <feComposite in="shadowOffsetInner2" in2="SourceAlpha" operator="arithmetic" k2="-1" k3="1" result="shadowInnerInner2"></feComposite>
            <feColorMatrix values="0 0 0 0 0   0 0 0 0 0   0 0 0 0 0  0 0 0 0.5 0" type="matrix" in="shadowInnerInner2" result="shadowMatrixInner2"></feColorMatrix>
            <feMerge>
                <feMergeNode in="shadowMatrixInner1"></feMergeNode>
                <feMergeNode in="shadowMatrixInner2"></feMergeNode>
            </feMerge>
        </filter>
    </defs>
    <g id="Command-Pressed" stroke="none" stroke-width="1" fill="none" fill-rule="evenodd">
        <g id="Group-2-Copy" transform="translate(0, -0.25)">
            <rect id="Rectangle" fill="url(#linearGradient-1)" x="0" y="0" width="136" height="139" rx="28"></rect>
            <g id="Rectangle-Copy">
                <use fill="#535353" fill-rule="evenodd" xlink:href="#path-2"></use>
                <use fill="black" fill-opacity="1" filter="url(#filter-3)" xlink:href="#path-2"></use>
                <rect stroke="#979797" stroke-width="1" stroke-linejoin="square" x="14.2837838" y="17.5" width="106.513514" height="105" rx="13"></rect>
            </g>
        </g>
        <g id="Rectangle-Copy-2" transform="translate(16.7838, 19.25)">
            <use fill="#FDFDFD" fill-rule="evenodd" xlink:href="#path-4"></use>
            <use fill="black" fill-opacity="1" filter="url(#filter-5)" xlink:href="#path-4"></use>
        </g>
        <text id="command" font-family="SFProText-Medium, SF Pro Text, -apple-system, BlinkMacSystemFont, system-ui, 'Segoe UI', Roboto, Oxygen, Ubuntu, Cantarell, 'Open Sans', 'Helvetica Neue', sans-serif" font-size="17" font-weight="400" fill="#767676">
            <tspan x="29.2837838" y="109">command</tspan>
        </text>
        <g id="command" transform="translate(87.0993, 27.25)" fill="#767676" fill-rule="nonzero">
            <rect id="Rectangle" opacity="0" x="0" y="0" width="23" height="23"></rect>
            <path d="M6.68596265,9.16481422 L6.68596265,13.8445231 L4.58240711,13.8537845 C2.05257981,13.8630649 0,15.8693187 0,18.4037767 C0,20.9336419 2.04794911,23 4.58703782,23 C7.10297299,23 9.16481422,20.9288974 9.16481422,18.4037767 L9.16481422,16.3280244 L13.8352617,16.3280244 L13.8352617,18.4037767 C13.8352617,20.9288974 15.8924722,23 18.4130381,23 C20.9520509,23 23,20.9336419 23,18.4037767 C23,15.8693187 20.9474961,13.8630649 18.4176688,13.8537845 L16.3141133,13.8445231 L16.3141133,9.16481422 L18.4176688,9.16018351 C20.9474961,9.1509221 23,7.14466833 23,4.60557962 C23,2.08038303 20.9520509,0.0139001295 18.4130381,0.0139001295 C15.8924722,0.0139001295 13.8352617,2.08964445 13.8352617,4.60557962 L13.8352617,6.68596265 L9.16481422,6.68596265 L9.16481422,4.60557962 C9.16481422,2.08964445 7.10297299,0.0139001295 4.58703782,0.0139001295 C2.04794911,0.0139001295 0,2.08038303 0,4.60557962 C0,7.14466833 2.05257981,9.1509221 4.58240711,9.16018351 L6.68596265,9.16481422 Z M4.64727496,6.70913517 C3.45650007,6.70913517 2.50665478,5.7685513 2.50665478,4.61021033 C2.50665478,3.46113078 3.44258897,2.52519659 4.58703782,2.52519659 C5.72222525,2.52519659 6.67205155,3.47039219 6.67205155,4.67507818 L6.67205155,6.70913517 L4.64727496,6.70913517 Z M18.352801,6.70913517 L16.3280244,6.70913517 L16.3280244,4.67507818 C16.3280244,3.47039219 17.2778507,2.52519659 18.4130381,2.52519659 C19.5575249,2.52519659 20.4933452,3.46113078 20.4933452,4.61021033 C20.4933452,5.7685513 19.5436707,6.70913517 18.352801,6.70913517 Z M9.16481422,13.8445231 L9.16481422,9.16481422 L13.8352617,9.16481422 L13.8352617,13.8445231 L9.16481422,13.8445231 Z M4.64727496,16.2955904 L6.67205155,16.2955904 L6.67205155,18.3342591 C6.67205155,19.5389262 5.72222525,20.4842356 4.58703782,20.4842356 C3.44258897,20.4842356 2.50665478,19.5482255 2.50665478,18.3944963 C2.50665478,17.2361553 3.45650007,16.2955904 4.64727496,16.2955904 Z M18.352801,16.2955904 C19.5436707,16.2955904 20.4933452,17.2361553 20.4933452,18.3944963 C20.4933452,19.5482255 19.5575249,20.4842356 18.4130381,20.4842356 C17.2778507,20.4842356 16.3280244,19.5389262 16.3280244,18.3342591 L16.3280244,16.2955904 L18.352801,16.2955904 Z" id="Shape" fill-opacity="0.85"></path>
        </g>
    </g>
</svg>