<?xml version="1.0" encoding="UTF-8"?>
<svg width="136px" height="139px" viewBox="0 0 136 139" version="1.1" xmlns="http://www.w3.org/2000/svg" xmlns:xlink="http://www.w3.org/1999/xlink">
    <title>Deactivate-Released</title>
    <defs>
        <linearGradient x1="50%" y1="0%" x2="50%" y2="100%" id="linearGradient-1">
            <stop stop-color="#F4F4F4" offset="0%"></stop>
            <stop stop-color="#CACACA" offset="100%"></stop>
        </linearGradient>
        <rect id="path-2" x="13.7837838" y="17" width="107.513514" height="106" rx="13"></rect>
        <filter x="-1.9%" y="-1.9%" width="103.7%" height="103.8%" filterUnits="objectBoundingBox" id="filter-3">
            <feGaussianBlur stdDeviation="1.5" in="SourceAlpha" result="shadowBlurInner1"></feGaussianBlur>
            <feOffset dx="0" dy="1" in="shadowBlurInner1" result="shadowOffsetInner1"></feOffset>
            <feComposite in="shadowOffsetInner1" in2="SourceAlpha" operator="arithmetic" k2="-1" k3="1" result="shadowInnerInner1"></feComposite>
            <feColorMatrix values="0 0 0 0 0   0 0 0 0 0   0 0 0 0 0  0 0 0 0.5 0" type="matrix" in="shadowInnerInner1"></feColorMatrix>
        </filter>
        <rect id="path-4" x="0" y="0" width="102" height="101" rx="12"></rect>
        <filter x="-2.0%" y="-2.0%" width="103.9%" height="104.0%" filterUnits="objectBoundingBox" id="filter-5">
            <feGaussianBlur stdDeviation="1.5" in="SourceAlpha" result="shadowBlurInner1"></feGaussianBlur>
            <feOffset dx="0" dy="-0.5" in="shadowBlurInner1" result="shadowOffsetInner1"></feOffset>
            <feComposite in="shadowOffsetInner1" in2="SourceAlpha" operator="arithmetic" k2="-1" k3="1" result="shadowInnerInner1"></feComposite>
            <feColorMatrix values="0 0 0 0 0   0 0 0 0 0   0 0 0 0 0  0 0 0 0.5 0" type="matrix" in="shadowInnerInner1" result="shadowMatrixInner1"></feColorMatrix>
            <feGaussianBlur stdDeviation="1.5" in="SourceAlpha" result="shadowBlurInner2"></feGaussianBlur>
            <feOffset dx="0" dy="-1" in="shadowBlurInner2" result="shadowOffsetInner2"></feOffset>
            <feComposite in="shadowOffsetInner2" in2="SourceAlpha" operator="arithmetic" k2="-1" k3="1" result="shadowInnerInner2"></feComposite>
            <feColorMatrix values="0 0 0 0 0   0 0 0 0 0   0 0 0 0 0  0 0 0 0.5 0" type="matrix" in="shadowInnerInner2" result="shadowMatrixInner2"></feColorMatrix>
            <feMerge>
                <feMergeNode in="shadowMatrixInner1"></feMergeNode>
                <feMergeNode in="shadowMatrixInner2"></feMergeNode>
            </feMerge>
        </filter>
    </defs>
    <g id="Deactivate-Released" stroke="none" stroke-width="1" fill="none" fill-rule="evenodd">
        <g id="Group-2-Copy" transform="translate(0, -0.25)">
            <rect id="Rectangle" fill="url(#linearGradient-1)" x="0" y="0" width="136" height="139" rx="28"></rect>
            <g id="Rectangle-Copy">
                <use fill="#535353" fill-rule="evenodd" xlink:href="#path-2"></use>
                <use fill="black" fill-opacity="1" filter="url(#filter-3)" xlink:href="#path-2"></use>
                <rect stroke="#979797" stroke-width="1" stroke-linejoin="square" x="14.2837838" y="17.5" width="106.513514" height="105" rx="13"></rect>
            </g>
        </g>
        <g id="Rectangle-Copy-2" transform="translate(16.7838, 19.25)">
            <use fill="#FDFDFD" fill-rule="evenodd" xlink:href="#path-4"></use>
            <use fill="black" fill-opacity="1" filter="url(#filter-5)" xlink:href="#path-4"></use>
        </g>
        <g id="xmark.seal.fill" transform="translate(85.0014, 28)" fill="#8B8B8B" fill-rule="nonzero">
            <path d="M14.6085647,1.07960164 L16.2667185,2.7293253 C16.414393,2.87278299 16.5536339,2.9276187 16.7477105,2.9276187 L19.0851497,2.9276187 C21.1145722,2.9276187 22.0766599,3.89383673 22.0766599,5.91484292 L22.0766599,8.25651619 C22.0766599,8.45059279 22.127296,8.58561687 22.2707365,8.73329136 L23.9204739,10.3914452 C25.354878,11.8217707 25.3633462,13.1803587 23.9204739,14.614901 L22.2707365,16.268838 C22.1314437,16.4165125 22.0766599,16.5557534 22.0766599,16.7540468 L22.0766599,19.0872519 C22.0766599,21.1166744 21.1104245,22.0787621 19.0851497,22.0787621 L16.7477105,22.0787621 C16.5536339,22.0787621 16.4186098,22.1293983 16.2667185,22.2769863 L14.6085647,23.9225762 C13.1782392,25.3569802 11.8196512,25.3613007 10.3893257,23.9225762 L8.73117187,22.2769863 C8.58349738,22.1293983 8.44849057,22.0787621 8.25439669,22.0787621 L5.91272343,22.0787621 C3.89171723,22.0787621 2.92551648,21.1125268 2.92551648,19.0872519 L2.92551648,16.7540468 C2.92551648,16.5557534 2.87066349,16.4165125 2.7272058,16.268838 L1.07748732,14.614901 C-0.357051537,13.1803587 -0.361271795,11.8217707 1.07748732,10.3914452 L2.7272058,8.73329136 C2.87066349,8.59405048 2.92551648,8.45059279 2.92551648,8.25651619 L2.92551648,5.91484292 C2.92551648,3.87695224 3.88750043,2.9276187 5.91272343,2.9276187 L8.25439669,2.9276187 C8.44849057,2.9276187 8.59194826,2.87278299 8.73117187,2.7293253 L10.3851089,1.08804042 C11.8196512,-0.359157483 13.1740224,-0.363376013 14.6085647,1.07960164 Z M15.1781614,8.25651619 L12.5073875,10.9146397 L9.84926391,8.26073299 C9.62143561,8.0455551 9.35983833,7.93163231 9.02652085,7.93163231 C8.39363758,7.93163231 7.89997792,8.42105789 7.89997792,9.05817524 C7.89997792,9.34507334 8.01811751,9.63198871 8.23752949,9.8429498 L10.9040866,12.5137238 L8.23752949,15.1844977 C8.01811751,15.3996756 7.89997792,15.6781401 7.89997792,15.9692723 C7.89997792,16.6105891 8.39363758,17.1084656 9.02652085,17.1084656 C9.35983833,17.1084656 9.63830282,16.9987596 9.8661484,16.7709313 L12.5073875,14.1212414 L15.1528433,16.7709313 C15.3764721,16.9987596 15.6507198,17.1084656 15.9882541,17.1084656 C16.6295709,17.1084656 17.1190138,16.6105891 17.1190138,15.9692723 C17.1190138,15.6739233 17.005091,15.3954588 16.7814795,15.1802809 L14.1191392,12.5137238 L16.7856963,9.838733 C17.0177414,9.61088742 17.1232306,9.34085653 17.1232306,9.04972436 C17.1232306,8.40840749 16.633805,7.91898191 16.0009045,7.91898191 C15.6718211,7.91898191 15.4144406,8.02445381 15.1781614,8.25651619 Z" id="Shape"></path>
        </g>
        <text id="deactivate" font-family="SFProText-Medium, SF Pro Text, -apple-system, BlinkMacSystemFont, system-ui, 'Segoe UI', Roboto, Oxygen, Ubuntu, Cantarell, 'Open Sans', 'Helvetica Neue', sans-serif" font-size="17" font-weight="400" fill="#767676">
            <tspan x="25" y="108.105992">deactivate</tspan>
        </text>
    </g>
</svg>