<?xml version="1.0" encoding="UTF-8"?>
<svg width="136px" height="139px" viewBox="0 0 136 139" version="1.1" xmlns="http://www.w3.org/2000/svg" xmlns:xlink="http://www.w3.org/1999/xlink">
    <title>Option-Pressed</title>
    <defs>
        <linearGradient x1="50%" y1="0%" x2="50%" y2="100%" id="linearGradient-1">
            <stop stop-color="#F4F4F4" offset="0%"></stop>
            <stop stop-color="#CACACA" offset="100%"></stop>
        </linearGradient>
        <rect id="path-2" x="13.7837838" y="17" width="107.513514" height="106" rx="13"></rect>
        <filter x="-1.9%" y="-1.9%" width="103.7%" height="103.8%" filterUnits="objectBoundingBox" id="filter-3">
            <feGaussianBlur stdDeviation="1.5" in="SourceAlpha" result="shadowBlurInner1"></feGaussianBlur>
            <feOffset dx="0" dy="1" in="shadowBlurInner1" result="shadowOffsetInner1"></feOffset>
            <feComposite in="shadowOffsetInner1" in2="SourceAlpha" operator="arithmetic" k2="-1" k3="1" result="shadowInnerInner1"></feComposite>
            <feColorMatrix values="0 0 0 0 0   0 0 0 0 0   0 0 0 0 0  0 0 0 0.5 0" type="matrix" in="shadowInnerInner1"></feColorMatrix>
        </filter>
        <rect id="path-4" x="0" y="0" width="102" height="101" rx="12"></rect>
        <filter x="-2.0%" y="-2.0%" width="103.9%" height="104.0%" filterUnits="objectBoundingBox" id="filter-5">
            <feGaussianBlur stdDeviation="1.5" in="SourceAlpha" result="shadowBlurInner1"></feGaussianBlur>
            <feOffset dx="0" dy="-0.5" in="shadowBlurInner1" result="shadowOffsetInner1"></feOffset>
            <feComposite in="shadowOffsetInner1" in2="SourceAlpha" operator="arithmetic" k2="-1" k3="1" result="shadowInnerInner1"></feComposite>
            <feColorMatrix values="0 0 0 0 0   0 0 0 0 0   0 0 0 0 0  0 0 0 0.5 0" type="matrix" in="shadowInnerInner1" result="shadowMatrixInner1"></feColorMatrix>
            <feGaussianBlur stdDeviation="1.5" in="SourceAlpha" result="shadowBlurInner2"></feGaussianBlur>
            <feOffset dx="0" dy="-1" in="shadowBlurInner2" result="shadowOffsetInner2"></feOffset>
            <feComposite in="shadowOffsetInner2" in2="SourceAlpha" operator="arithmetic" k2="-1" k3="1" result="shadowInnerInner2"></feComposite>
            <feColorMatrix values="0 0 0 0 0   0 0 0 0 0   0 0 0 0 0  0 0 0 0.5 0" type="matrix" in="shadowInnerInner2" result="shadowMatrixInner2"></feColorMatrix>
            <feMerge>
                <feMergeNode in="shadowMatrixInner1"></feMergeNode>
                <feMergeNode in="shadowMatrixInner2"></feMergeNode>
            </feMerge>
        </filter>
    </defs>
    <g id="Option-Pressed" stroke="none" stroke-width="1" fill="none" fill-rule="evenodd">
        <g id="Group-2-Copy" transform="translate(0, -0.25)">
            <rect id="Rectangle" fill="url(#linearGradient-1)" x="0" y="0" width="136" height="139" rx="28"></rect>
            <g id="Rectangle-Copy">
                <use fill="#535353" fill-rule="evenodd" xlink:href="#path-2"></use>
                <use fill="black" fill-opacity="1" filter="url(#filter-3)" xlink:href="#path-2"></use>
                <rect stroke="#979797" stroke-width="1" stroke-linejoin="square" x="14.2837838" y="17.5" width="106.513514" height="105" rx="13"></rect>
            </g>
        </g>
        <g id="Group-Copy" transform="translate(16.7838, 19.25)">
            <g id="Rectangle-Copy-2">
                <use fill="#FDFDFD" fill-rule="evenodd" xlink:href="#path-4"></use>
                <use fill="black" fill-opacity="1" filter="url(#filter-5)" xlink:href="#path-4"></use>
            </g>
            <g id="option" transform="translate(72.206, 8.25)" fill="#767676" fill-rule="nonzero">
                <rect id="Rectangle" opacity="0" x="0" y="0" width="21.010228" height="18.5082681"></rect>
                <path d="M6.03805249,0 L1.31142984,0 C0.569847338,0 0,0.554236068 0,1.26849685 C0,1.98275124 0.56594492,2.5369873 1.31142984,2.5369873 L5.47599879,2.5369873 C5.76873609,2.5369873 5.99901232,2.67749673 6.12391847,2.93901149 L12.6693492,17.0524952 C13.1455369,18.059514 13.8363816,18.5082681 14.9214329,18.5082681 L19.7026542,18.5082681 C20.4364558,18.5082681 21.010228,17.9463263 21.010228,17.2398624 C21.010228,16.5295616 20.4402927,15.9713447 19.7026542,15.9713447 L15.4990738,15.9713447 C15.17513,15.9713447 14.9565562,15.8425538 14.8355669,15.581039 L8.30182258,1.48316501 C7.85687339,0.542525617 7.04503937,0 6.03805249,0 Z M19.7026542,0 L13.4343574,0 C12.6927701,0 12.1268316,0.550332051 12.1268316,1.26459443 C12.1268316,1.97885042 12.6888693,2.52528485 13.4343574,2.52528485 L19.7026542,2.52528485 C20.4442894,2.52528485 21.0062312,1.97885042 21.0062312,1.26459443 C21.0062312,0.546429633 20.4442894,0 19.7026542,0 Z" id="Shape" fill-opacity="0.85"></path>
            </g>
            <text id="option" font-family="SFProText-Medium, SF Pro Text, -apple-system, BlinkMacSystemFont, system-ui, 'Segoe UI', Roboto, Oxygen, Ubuntu, Cantarell, 'Open Sans', 'Helvetica Neue', sans-serif" font-size="17" font-weight="400" fill="#767676">
                <tspan x="41.2162162" y="88.5">option</tspan>
            </text>
        </g>
    </g>
</svg>