<?xml version="1.0" encoding="UTF-8" standalone="no"?>
<!DOCTYPE svg PUBLIC "-//W3C//DTD SVG 1.1//EN" "http://www.w3.org/Graphics/SVG/1.1/DTD/svg11.dtd">
<!-- Created with Vectornator (http://vectornator.io/) -->
<svg height="100%" stroke-miterlimit="10" style="fill-rule:nonzero;clip-rule:evenodd;stroke-linecap:round;stroke-linejoin:round;" version="1.1" viewBox="17.7143 285.667 984.827 450.333" width="100%" xml:space="preserve" xmlns="http://www.w3.org/2000/svg" xmlns:vectornator="http://vectornator.io" xmlns:xlink="http://www.w3.org/1999/xlink">
<defs/>
<g id="Layer">
<path d="M160.5 287C154.833 288.333 148.5 290.833 141.5 294.5C134.5 298.167 130 301.5 128 304.5C126 307.5 124.833 310 124.5 312C124.167 314 124.5 316.833 125.5 320.5C126.5 324.167 128 326.5 130 327.5C132 328.5 134.333 328.833 137 328.5C139.667 328.167 145.5 325.5 154.5 320.5C163.5 315.5 170 312.5 174 311.5C178 310.5 183.833 310 191.5 310C199.167 310 205.667 310.833 211 312.5C216.333 314.167 221.667 317 227 321C232.333 325 238 330.833 244 338.5C250 346.167 256 355.5 262 366.5C268 377.5 272.167 386.5 274.5 393.5C276.833 400.5 278.833 413.667 280.5 433C282.167 452.333 282.333 476.333 281 505C279.667 533.667 277.333 555.5 274 570.5C270.667 585.5 266.833 599 262.5 611C258.167 623 254.167 632.667 250.5 640C246.833 647.333 242 655.333 236 664C230 672.667 224.333 679.5 219 684.5C213.667 689.5 208.5 693.5 203.5 696.5C198.5 699.5 190.5 702.167 179.5 704.5C168.5 706.833 158.667 708 150 708C141.333 708 133.5 707.333 126.5 706C119.5 704.667 113 701.833 107 697.5C101 693.167 94.8333 686.5 88.5 677.5C82.1667 668.5 75.8333 656.5 69.5 641.5C63.1667 626.5 58.6667 612.833 56 600.5C53.3333 588.167 51.8333 578.333 51.5 571C51.1667 563.667 51.8333 554.167 53.5 542.5C55.1667 530.833 57.6667 519 61 507C64.3333 495 67.8333 485 71.5 477C75.1667 469 83 457.167 95 441.5C107 425.833 120.667 410.667 136 396C151.333 381.333 163.167 371.667 171.5 367C179.833 362.333 189.5 359.333 200.5 358C211.5 356.667 217.5 355.5 218.5 354.5C219.5 353.5 220 351.5 220 348.5C220 345.5 218.5 342.333 215.5 339C212.5 335.667 209.5 333.5 206.5 332.5C203.5 331.5 198.833 331 192.5 331C186.167 331 180.5 331.667 175.5 333C170.5 334.333 165.167 336.333 159.5 339C153.833 341.667 145 347.333 133 356C121 364.667 109.167 374.833 97.5 386.5C85.8333 398.167 75 410.667 65 424C55 437.333 47.3333 449 42 459C36.6667 469 32 480 28 492C24 504 21.1667 516.667 19.5 530C17.8333 543.333 17.3333 556 18 568C18.6667 580 20.3333 592.333 23 605C25.6667 617.667 28.8333 628.833 32.5 638.5C36.1667 648.167 40.8333 657.833 46.5 667.5C52.1667 677.167 58.8333 686.167 66.5 694.5C74.1667 702.833 80.5 708.833 85.5 712.5C90.5 716.167 96.6667 719.833 104 723.5C111.333 727.167 119.833 730.167 129.5 732.5C139.167 734.833 149 736 159 736C169 736 180.833 734.333 194.5 731C208.167 727.667 218.667 724 226 720C233.333 716 240.5 710.667 247.5 704C254.5 697.333 261.333 688.833 268 678.5C274.667 668.167 281 656.333 287 643C293 629.667 298 615.833 302 601.5C306 587.167 309 571.167 311 553.5C313 535.833 314.333 518.667 315 502C315.667 485.333 315.667 470.167 315 456.5C314.333 442.833 312.333 429 309 415C305.667 401 301.667 388 297 376C292.333 364 285.667 352.167 277 340.5C268.333 328.833 259 318.5 249 309.5C239 300.5 230 294.5 222 291.5C214 288.5 203.167 286.667 189.5 286C175.833 285.333 166.167 285.667 160.5 287ZM600 346.5C598 348.167 596.5 350.667 595.5 354C594.5 357.333 591.167 380.833 585.5 424.5C579.833 468.167 573 511.5 565 554.5C557 597.5 551 626.5 547 641.5C543 656.5 540 665.833 538 669.5C536 673.167 534.333 675.5 533 676.5C531.667 677.5 530.333 677.833 529 677.5C527.667 677.167 526.5 676.333 525.5 675C524.5 673.667 522.667 668 520 658C517.333 648 512.833 635.167 506.5 619.5C500.167 603.833 494.667 591.333 490 582C485.333 572.667 481.167 566.333 477.5 563C473.833 559.667 469.5 557.833 464.5 557.5C459.5 557.167 455.5 557.833 452.5 559.5C449.5 561.167 445.167 571.833 439.5 591.5C433.833 611.167 429.833 623.167 427.5 627.5C425.167 631.833 423.5 633.833 422.5 633.5C421.5 633.167 420.167 628.5 418.5 619.5C416.833 610.5 415 594 413 570C411 546 409.167 506.833 407.5 452.5C405.833 398.167 404.5 369.667 403.5 367C402.5 364.333 400.5 362 397.5 360C394.5 358 390.667 356.667 386 356C381.333 355.333 377.667 355.333 375 356C372.333 356.667 370.833 359.5 370.5 364.5C370.167 369.5 371.167 395.333 373.5 442C375.833 488.667 378.5 531.333 381.5 570C384.5 608.667 387.833 638.333 391.5 659C395.167 679.667 397.833 692.167 399.5 696.5C401.167 700.833 403.833 704.833 407.5 708.5C411.167 712.167 414.333 714.5 417 715.5C419.667 716.5 422.333 717 425 717C427.667 717 429.833 716.5 431.5 715.5C433.167 714.5 439.667 696.833 451 662.5C462.333 628.167 468.667 611 470 611C471.333 611 472.667 611.833 474 613.5C475.333 615.167 479 624.5 485 641.5C491 658.5 497.333 672.5 504 683.5C510.667 694.5 516.167 702.167 520.5 706.5C524.833 710.833 529.667 714.333 535 717C540.333 719.667 545.167 720.667 549.5 720C553.833 719.333 557 717.667 559 715C561 712.333 565.167 701.333 571.5 682C577.833 662.667 584.333 638 591 608C597.667 578 603.833 545.667 609.5 511C615.167 476.333 619.333 446.667 622 422C624.667 397.333 626.833 381.5 628.5 374.5C630.167 367.5 630.833 362.667 630.5 360C630.167 357.333 628.833 354.667 626.5 352C624.167 349.333 621.667 347.333 619 346C616.333 344.667 613 344 609 344C605 344 602 344.833 600 346.5ZM715 362.5C708.333 363.5 703 365.167 699 367.5C695 369.833 690.667 373.833 686 379.5C681.333 385.167 676.833 392.5 672.5 401.5C668.167 410.5 664.333 420.5 661 431.5C657.667 442.5 654.833 454.5 652.5 467.5C650.167 480.5 648.5 491.833 647.5 501.5C646.5 511.167 646 523.833 646 539.5C646 555.167 646.667 568.333 648 579C649.333 589.667 651.167 600 653.5 610C655.833 620 658.5 629.167 661.5 637.5C664.5 645.833 668 653.833 672 661.5C676 669.167 680.833 676.667 686.5 684C692.167 691.333 697 696.667 701 700C705 703.333 709.833 706.5 715.5 709.5C721.167 712.5 726.833 714.167 732.5 714.5C738.167 714.833 742.667 714.167 746 712.5C749.333 710.833 754.333 706.333 761 699C767.667 691.667 775.333 681.333 784 668C792.667 654.667 798.5 644.5 801.5 637.5C804.5 630.5 804.167 625.667 800.5 623C796.833 620.333 792.333 619 787 619C781.667 619 771.333 628.833 756 648.5C740.667 668.167 731.667 679.333 729 682C726.333 684.667 724 685.833 722 685.5C720 685.167 717.833 683.667 715.5 681C713.167 678.333 710.5 674 707.5 668C704.5 662 700.667 651.5 696 636.5C691.333 621.5 687.667 605.333 685 588C682.333 570.667 681 555.833 681 543.5C681 531.167 681.333 524.5 682 523.5C682.667 522.5 683.833 522 685.5 522C687.167 522 690.5 523.833 695.5 527.5C700.5 531.167 706.5 533.333 713.5 534C720.5 534.667 726.833 534.333 732.5 533C738.167 531.667 743.833 529.167 749.5 525.5C755.167 521.833 760.833 516.833 766.5 510.5C772.167 504.167 777.667 496.5 783 487.5C788.333 478.5 792.5 469.667 795.5 461C798.5 452.333 800.333 444.667 801 438C801.667 431.333 801.167 424 799.5 416C797.833 408 794.333 400 789 392C783.667 384 777 377.5 769 372.5C761 367.5 754 364.333 748 363C742 361.667 736.667 361 732 361C727.333 361 721.667 361.5 715 362.5ZM851 367C849.667 368.333 848.667 371 848 375C847.333 379 846.667 408.5 846 463.5C845.333 518.5 843.667 567 841 609C838.333 651 837.333 675.5 838 682.5C838.667 689.5 839.667 694.167 841 696.5C842.333 698.833 844.333 701.167 847 703.5C849.667 705.833 853 707.167 857 707.5C861 707.833 864.667 707.667 868 707C871.333 706.333 874.667 669.667 878 597C881.333 524.333 883.667 482.833 885 472.5C886.333 462.167 888 453.167 890 445.5C892 437.833 894.667 431 898 425C901.333 419 905 414.167 909 410.5C913 406.833 917.5 403.833 922.5 401.5C927.5 399.167 933.833 397.833 941.5 397.5C949.167 397.167 954.333 397.667 957 399C959.667 400.333 961.667 402.167 963 404.5C964.333 406.833 965.667 412.333 967 421C968.333 429.667 968.667 441.833 968 457.5C967.333 473.167 965 498.167 961 532.5C957 566.833 955 596.333 955 621C955 645.667 955.5 660.667 956.5 666C957.5 671.333 959.167 676.667 961.5 682C963.833 687.333 966.833 691.5 970.5 694.5C974.167 697.5 978.833 699 984.5 699C990.167 699 993.667 698.167 995 696.5C996.333 694.833 997 693 997 691C997 689 996.667 687 996 685C995.333 683 994.333 681.5 993 680.5C991.667 679.5 990.667 677.667 990 675C989.333 672.333 988.833 663.833 988.5 649.5C988.167 635.167 988.667 617.333 990 596C991.333 574.667 993.833 547.333 997.5 514C1001.17 480.667 1002.83 458.167 1002.5 446.5C1002.17 434.833 1001.17 425.667 999.5 419C997.833 412.333 995.667 406.667 993 402C990.333 397.333 987.333 393.333 984 390C980.667 386.667 975 383 967 379C959 375 951.167 372.333 943.5 371C935.833 369.667 929.167 369.167 923.5 369.5C917.833 369.833 912.167 371 906.5 373C900.833 375 895.333 378 890 382C884.667 386 879.5 384.833 874.5 378.5C869.5 372.167 864.667 368.333 860 367C855.333 365.667 852.333 365.667 851 367ZM743.5 389C750.5 389.667 755.333 391 758 393C760.667 395 762.5 397 763.5 399C764.5 401 765.333 403.667 766 407C766.667 410.333 766.833 415.167 766.5 421.5C766.167 427.833 764.833 435.167 762.5 443.5C760.167 451.833 756.667 460.333 752 469C747.333 477.667 742.667 484.5 738 489.5C733.333 494.5 727.167 498.667 719.5 502C711.833 505.333 706 507.333 702 508C698 508.667 693.667 508.833 689 508.5C684.333 508.167 681.667 507.167 681 505.5C680.333 503.833 680.667 499.833 682 493.5C683.333 487.167 686.833 474.333 692.5 455C698.167 435.667 703.5 421.5 708.5 412.5C713.5 403.5 717.167 397.833 719.5 395.5C721.833 393.167 724.667 391.333 728 390C731.333 388.667 736.5 388.333 743.5 389ZM157 431.5C155 432.5 153.333 434.667 152 438C150.667 441.333 148.667 452.5 146 471.5C143.333 490.5 142.5 501.667 143.5 505C144.5 508.333 146.5 511.5 149.5 514.5C152.5 517.5 155 519.5 157 520.5C159 521.5 161.167 522 163.5 522C165.833 522 168 520.333 170 517C172 513.667 173 509.333 173 504C173 498.667 174.167 489 176.5 475C178.833 461 180 451.667 180 447C180 442.333 179.333 438.833 178 436.5C176.667 434.167 173.333 432.5 168 431.5C162.667 430.5 159 430.5 157 431.5ZM201.5 433.5C200.5 434.5 199.667 437.667 199 443C198.333 448.333 198.333 457.333 199 470C199.667 482.667 201 491 203 495C205 499 207.333 502.333 210 505C212.667 507.667 215.667 509.5 219 510.5C222.333 511.5 225.167 511.167 227.5 509.5C229.833 507.833 231.333 505.833 232 503.5C232.667 501.167 233 492.5 233 477.5C233 462.5 232.667 453.333 232 450C231.333 446.667 230.167 443.833 228.5 441.5C226.833 439.167 225 437.5 223 436.5C221 435.5 217.167 434.5 211.5 433.5C205.833 432.5 202.5 432.5 201.5 433.5ZM199.5 570C195.833 573.333 191 581 185 593C179 605 174.167 612.5 170.5 615.5C166.833 618.5 163.667 620 161 620C158.333 620 156.167 619.333 154.5 618C152.833 616.667 152.167 610.5 152.5 599.5C152.833 588.5 151.833 582.167 149.5 580.5C147.167 578.833 143.833 577.333 139.5 576C135.167 574.667 131.167 574.333 127.5 575C123.833 575.667 121.667 578.333 121 583C120.333 587.667 121 593.833 123 601.5C125 609.167 127.167 615.333 129.5 620C131.833 624.667 134.667 628.833 138 632.5C141.333 636.167 146 639.5 152 642.5C158 645.5 163.333 647.167 168 647.5C172.667 647.833 177.333 647.167 182 645.5C186.667 643.833 190.333 641.833 193 639.5C195.667 637.167 199.333 632.333 204 625C208.667 617.667 213.5 608.5 218.5 597.5C223.5 586.5 226 580 226 578C226 576 225.333 574.167 224 572.5C222.667 570.833 220.5 569.167 217.5 567.5C214.5 565.833 211.667 565 209 565C206.333 565 203.167 566.667 199.5 570Z" fill="#000000" fill-rule="nonzero" opacity="1" stroke="none"/>
</g>
</svg>
